<?xml version="1.0" encoding="UTF-8"?>
<svg id="Layer_1" xmlns="http://www.w3.org/2000/svg" width="512" height="512" version="1.1" viewBox="0 0 512 512">
  <!-- Generator: Adobe Illustrator 29.1.0, SVG Export Plug-In . SVG Version: 2.1.0 Build 142)  -->
  <circle cx="256" cy="256" r="256" fill="#fad5e5"/>
  <path d="M256,39c29.3,0,57.7,5.7,84.5,17,25.8,10.9,49,26.6,69,46.5,19.9,19.9,35.6,43.2,46.5,69,11.3,26.7,17,55.1,17,84.5s-5.7,57.7-17,84.5c-10.9,25.8-26.6,49-46.5,69s-43.2,35.6-69,46.5c-26.7,11.3-55.1,17-84.5,17s-57.7-5.7-84.5-17c-25.8-10.9-49-26.6-69-46.5s-35.6-43.2-46.5-69c-11.3-26.7-17-55.1-17-84.5s5.7-57.7,17-84.5c10.9-25.8,26.6-49,46.5-69,19.9-19.9,43.2-35.6,69-46.5,26.7-11.3,55.1-17,84.5-17M256,0C114.6,0,0,114.6,0,256s114.6,256,256,256,256-114.6,256-256S397.4,0,256,0h0Z" fill="#9e005d"/>
  <path d="M256,62.7c0,0,0,0-.1,0h0s0,0-.1,0h0c-.1,0-.3,0-.4,0,0,0-.2,0-.2,0,0,0,0,0,0,0,0,0,0,0-.1,0-16.5.1-29.8,13.6-29.7,30.1,0,16.5,13.5,29.9,30.1,29.9s0,0,0,0h.7c16.6,0,30-13.5,30-30.1s-13.3-29.9-29.8-29.9c0,0-.1,0-.2,0h0Z" fill="#d60080"/>
  <path d="M157.6,95.6c-6.3,0-12.6,2-18,6,0,0,0,0-.1,0,0,0,0,0,0,0,0,0,0,0,0,0,0,0,0,0,0,0,0,0,0,0,0,0-.1.1-.3.2-.4.3,0,0,0,0,0,0,0,0,0,0,0,0,0,0-.1,0-.2.1,0,0,0,0,0,0,0,0,0,0-.1,0-13.1,10.1-15.6,28.8-5.5,41.9,5.9,7.7,14.9,11.8,23.9,11.8s12.7-2,18.2-6.1l.6-.4c13.2-10,15.8-28.9,5.8-42.1-5.9-7.8-14.8-11.9-23.9-11.9h0Z" fill="#d60080"/>
  <path d="M98.8,181.2c-13,0-25,8.5-28.7,21.6,0,0,0,.1,0,.2,0,0,0,0,0,0,0,.3-.2.6-.2.8,0,0,0,0,0,0,0,0,0,0,0,0,0,0,0,.1,0,.2-4.4,15.9,4.9,32.3,20.8,36.7,2.7.8,5.4,1.1,8.1,1.1,13.1,0,25.2-8.7,28.9-21.9l.2-.7c4.5-15.9-4.8-32.6-20.7-37.1-2.7-.8-5.5-1.2-8.2-1.2h0Z" fill="#d60080"/>
  <path d="M271.8,388.5c-.9,0-1.9,0-2.8.1h-.7c-16.5,1.6-28.7,16.2-27.2,32.7,1.4,15.6,14.5,27.2,29.8,27.2s1.7,0,2.6-.1c.5,0,.9,0,1.4-.1,16.4-1.6,28.4-16.2,26.8-32.6-1.5-15.5-14.6-27.2-29.9-27.2h0Z" fill="#d60080"/>
  <path d="M366.5,346.3c-7.3,0-14.5,2.6-20.3,7.9l-.5.5c-12.2,11.2-13.1,30.2-1.9,42.4,5.9,6.5,14,9.8,22.1,9.8s14.3-2.5,20-7.7c.1-.1.2-.2.4-.3,0,0,0,0,0,0,0,0,0,0,.1,0,0,0,0,0,0,0,.2-.2.4-.4.6-.5,12.1-11.2,12.8-30,1.7-42.2-5.9-6.4-14-9.7-22.1-9.7h0Z" fill="#d60080"/>
  <path d="M416.7,255.4c-14.2,0-26.9,10.1-29.6,24.6v.7c-3.1,16.3,7.6,32,23.9,35,1.9.3,3.7.5,5.5.5,14.1,0,26.6-10,29.3-24.3,0-.1,0-.3,0-.4,0,0,0,0,0,0,0,0,0,0,0,0,0-.2,0-.5.1-.7,0,0,0,0,0,0,0,0,0,0,0-.1,2.9-16.2-7.9-31.8-24.1-34.7-1.8-.3-3.6-.5-5.4-.5h0Z" fill="#d60080"/>
  <path d="M237.4,188.2l-60.6,60.6c-3.9,3.9-7,8.6-9.1,13.8l-53.6,112.8c-5.9,14.9,8.9,29.7,23.8,23.8l111.4-53.1c6.1-2.4,11.7-6.1,16.3-10.7l68.4-68.4c4.2-4.2,7.4-9.2,9.5-14.8l57.4-116.8c5.2-14-8.7-27.4-22.5-21.8l-127,65.2c-5.2,2.1-9.9,5.3-13.9,9.2Z" fill="#d60080"/>
  <path d="M115.3,391.5c4.3,7,13.1,11.1,22,7.8.3-.1.6-.3.9-.4l110.9-52.9c6.1-2.4,11.7-6.1,16.3-10.7l68.4-68.4c4.1-4.1,7.3-9,9.3-14.4s.2-.5.3-.8l56.9-115.8c.2-.4.4-.8.5-1.3,1.4-4.4,1-8.8-.7-12.4-5.1-10.9-21.5-5.6-19.6,6.2h0c.4,2.2,0,4.5-1.1,6.6l-57.8,109.1c-.5.9-1,1.6-1.7,2.3l-71.5,73.9c-.8.8-1.7,1.5-2.8,2l-104.4,52.8c-1.6.8-3.4,1.2-5.2,1.1l-11.6-.6c-8.3-.4-13.7,8.6-9.4,15.7Z" fill="#9e005d"/>
  <path d="M350.4,142.9l-71.8,38.4c-10.7,5.7-20.5,12.9-29.3,21.2l-58.5,55.9" fill="none" stroke="#dff0e6" stroke-linecap="round" stroke-linejoin="round" stroke-width="11"/>
  <circle cx="256" cy="256" r="15.4" fill="#dff0e6"/>
</svg>