<svg xmlns="http://www.w3.org/2000/svg" viewBox="0 0 40 40">
  <!-- Palette base shape -->
  <path d="M20,4C11.2,4,4,11.2,4,20s7.2,16,16,16c1.8,0,3.2-1.4,3.2-3.2c0-0.8-0.3-1.6-0.8-2.1c-0.5-0.6-0.8-1.3-0.8-2.1
    c0-1.8,1.4-3.2,3.2-3.2h3.8c4.9,0,8.8-4,8.8-8.8C37.4,10.4,29.6,4,20,4z" fill="#f5f5f5" stroke="#1a1a1a" stroke-width="1.5"/>
  <!-- Color dots -->
  <circle cx="12" cy="16" r="3" fill="#E6B43C"/>
  <circle cx="18" cy="10" r="3" fill="#801414"/>
  <circle cx="26" cy="10" r="3" fill="#40B4FF"/>
  <circle cx="30" cy="16" r="3" fill="#A55200"/>
</svg>
